<svg id="svg" version="1.1" xmlns="http://www.w3.org/2000/svg" xmlns:xlink="http://www.w3.org/1999/xlink" width="400" height="379.7270955165692" viewBox="0, 0, 400,379.7270955165692"><g id="svgg"><path id="path0" d="M289.548 94.542 C 289.310 94.927,287.745 95.051,286.071 94.817 C 284.397 94.582,282.065 94.789,280.890 95.275 C 279.714 95.761,278.422 96.079,278.018 95.982 C 273.408 94.879,243.680 111.341,245.363 114.065 C 245.634 114.503,245.497 114.639,245.059 114.369 C 244.285 113.891,242.081 115.777,241.576 117.349 C 241.438 117.778,241.083 118.048,240.788 117.949 C 239.792 117.618,233.115 125.910,233.522 126.972 C 233.744 127.550,232.784 129.105,231.388 130.428 C 229.992 131.752,229.376 132.570,230.019 132.246 C 230.706 131.901,230.625 132.120,229.824 132.777 C 227.360 134.796,220.634 150.781,222.816 149.433 C 223.328 149.116,223.482 149.516,223.225 150.498 C 222.999 151.363,222.504 152.263,222.125 152.497 C 221.747 152.731,221.619 153.865,221.841 155.019 C 222.149 156.612,222.089 156.754,221.591 155.613 C 220.761 153.710,219.836 155.595,219.961 158.933 L 220.038 161.014 220.663 159.064 C 221.177 157.457,221.299 157.389,221.354 158.674 C 221.475 161.478,220.525 163.998,219.787 162.834 C 219.367 162.172,219.123 163.017,219.115 165.153 C 219.107 167.400,219.387 168.338,219.961 167.983 C 220.584 167.598,220.584 167.890,219.961 169.055 C 219.489 169.937,219.128 173.225,219.158 176.362 C 219.191 179.791,219.448 181.467,219.801 180.564 C 220.348 179.170,220.428 179.160,220.916 180.433 C 221.692 182.454,221.556 184.795,220.663 184.795 C 220.234 184.795,219.883 185.322,219.883 185.965 C 219.883 186.608,220.440 187.135,221.121 187.135 C 222.129 187.135,222.275 187.750,221.904 190.448 C 221.580 192.798,221.658 193.308,222.170 192.203 C 222.567 191.345,222.917 191.053,222.947 191.554 C 222.977 192.055,223.237 193.078,223.524 193.826 C 223.880 194.754,223.756 195.008,223.134 194.624 C 222.633 194.314,222.222 194.432,222.222 194.886 C 222.222 195.340,222.836 195.717,223.587 195.723 C 224.753 195.734,224.781 195.845,223.782 196.491 C 222.742 197.163,222.742 197.250,223.782 197.271 C 224.821 197.292,224.821 197.379,223.782 198.051 C 222.766 198.707,222.781 198.808,223.893 198.818 C 225.166 198.830,226.530 201.021,225.749 201.801 C 225.525 202.026,225.341 201.741,225.341 201.170 C 225.341 200.598,225.156 200.315,224.929 200.542 C 224.200 201.271,226.148 205.414,227.915 206.890 C 228.858 207.678,229.156 208.074,228.577 207.771 C 227.710 207.316,227.694 207.545,228.488 209.068 C 229.724 211.440,230.414 212.102,229.763 210.291 C 229.462 209.453,229.569 209.078,230.028 209.362 C 230.452 209.624,230.804 210.432,230.811 211.157 C 230.829 213.203,232.767 216.398,233.845 216.160 C 234.411 216.035,234.578 216.327,234.247 216.863 C 233.928 217.379,234.309 218.240,235.118 218.832 C 235.908 219.410,236.270 219.883,235.921 219.883 C 235.572 219.883,235.720 220.405,236.250 221.044 C 236.780 221.683,237.501 222.028,237.851 221.811 C 238.202 221.594,238.743 221.828,239.053 222.330 C 239.405 222.900,239.279 223.034,238.717 222.687 C 238.222 222.381,237.817 222.427,237.817 222.790 C 237.817 223.555,245.026 230.799,245.788 230.799 C 246.068 230.799,247.450 231.852,248.859 233.138 C 250.267 234.425,251.868 235.478,252.415 235.478 C 252.963 235.478,253.411 235.785,253.411 236.161 C 253.411 238.391,271.187 245.756,280.702 247.467 C 281.345 247.583,282.678 247.944,283.663 248.270 C 284.801 248.646,285.923 248.483,286.737 247.823 C 287.442 247.251,287.780 247.182,287.488 247.669 C 287.160 248.217,287.772 248.710,289.091 248.962 C 290.264 249.187,291.452 249.001,291.731 248.550 C 292.010 248.099,292.921 247.908,293.755 248.126 C 294.589 248.344,296.871 248.280,298.827 247.983 C 301.259 247.614,302.279 247.711,302.057 248.290 C 301.844 248.845,302.942 249.040,305.250 248.856 C 307.184 248.702,308.595 248.297,308.384 247.957 C 308.174 247.616,308.525 247.136,309.166 246.890 C 309.807 246.644,310.331 246.826,310.331 247.293 C 310.331 247.821,310.832 247.738,311.651 247.074 C 312.547 246.347,312.782 246.316,312.384 246.979 C 311.630 248.234,313.031 248.211,316.771 246.909 C 318.383 246.348,319.447 245.633,319.134 245.320 C 318.822 245.008,319.128 244.968,319.816 245.231 C 320.503 245.495,322.372 245.165,323.968 244.498 C 325.565 243.831,327.148 243.456,327.487 243.665 C 327.825 243.875,328.303 243.521,328.549 242.881 C 328.795 242.240,329.479 241.715,330.070 241.715 C 332.873 241.715,336.156 239.261,335.122 237.938 C 334.235 236.804,334.268 236.768,335.390 237.645 C 336.705 238.672,340.741 237.570,340.741 236.185 C 340.741 235.854,341.399 235.374,342.203 235.119 C 343.007 234.863,344.937 233.419,346.491 231.910 C 348.046 230.400,349.318 229.400,349.318 229.688 C 349.318 229.975,349.840 229.777,350.479 229.247 C 351.117 228.717,351.414 227.918,351.138 227.471 C 350.862 227.025,350.974 226.869,351.387 227.124 C 352.059 227.539,356.125 223.969,356.082 223.002 C 356.073 222.788,357.178 221.499,358.538 220.139 C 360.209 218.469,360.861 217.203,360.549 216.240 C 360.219 215.224,360.295 215.105,360.814 215.826 C 361.711 217.075,362.032 216.704,366.009 209.830 C 367.595 207.089,368.707 204.363,368.481 203.773 C 368.254 203.182,368.775 201.040,369.639 199.011 C 370.503 196.982,371.053 196.112,370.863 197.077 C 370.658 198.115,370.832 198.637,371.291 198.354 C 371.717 198.090,371.893 197.213,371.681 196.404 C 371.470 195.595,371.631 194.726,372.041 194.473 C 372.495 194.193,372.435 193.592,371.888 192.932 C 371.204 192.108,371.288 190.979,372.240 188.184 C 372.927 186.167,373.489 183.858,373.489 183.051 C 373.489 182.139,373.830 181.795,374.392 182.142 C 375.010 182.524,375.156 182.171,374.855 181.019 C 374.613 180.094,374.733 179.337,375.122 179.337 C 375.510 179.337,375.801 175.565,375.767 170.955 C 375.733 166.345,375.528 163.012,375.312 163.548 C 374.516 165.522,373.675 164.425,373.221 160.819 C 372.423 154.490,371.476 150.871,370.659 151.025 C 370.218 151.108,370.022 150.170,370.211 148.881 C 370.411 147.515,370.196 146.589,369.679 146.589 C 369.202 146.589,368.811 145.873,368.811 144.998 C 368.811 144.123,368.102 142.019,367.236 140.321 C 366.360 138.603,365.819 136.362,366.018 135.268 C 366.223 134.137,366.058 133.497,365.631 133.761 C 365.222 134.014,365.122 134.602,365.410 135.067 C 365.722 135.572,365.570 135.689,365.033 135.357 C 364.538 135.051,364.133 134.274,364.133 133.631 C 364.133 132.946,363.760 132.692,363.232 133.018 C 362.717 133.336,362.542 133.234,362.824 132.779 C 363.491 131.699,358.728 124.631,357.743 125.240 C 357.312 125.506,357.393 124.892,357.923 123.876 C 358.452 122.859,358.607 122.287,358.267 122.605 C 357.558 123.268,355.556 121.836,355.556 120.667 C 355.556 120.232,356.073 120.316,356.725 120.858 C 359.195 122.907,357.720 121.093,354.190 117.739 C 352.160 115.809,351.197 115.107,352.052 116.179 L 353.606 118.129 351.852 116.643 C 350.887 115.826,350.097 114.747,350.097 114.245 C 350.097 113.743,349.164 112.482,348.022 111.442 C 346.881 110.402,346.216 110.016,346.545 110.584 C 347.036 111.434,346.859 111.439,345.536 110.613 C 344.653 110.062,344.085 109.457,344.273 109.268 C 344.901 108.640,334.129 102.140,333.098 102.526 C 332.540 102.735,332.297 102.559,332.559 102.135 C 332.821 101.711,332.338 101.365,331.486 101.365 C 330.633 101.365,329.376 100.804,328.691 100.119 C 328.006 99.434,326.928 99.072,326.296 99.315 C 325.663 99.558,325.146 99.440,325.146 99.053 C 325.146 98.667,324.357 98.124,323.392 97.846 C 322.427 97.569,320.979 97.157,320.175 96.931 C 319.240 96.667,318.903 96.827,319.241 97.373 C 319.572 97.908,319.318 98.055,318.563 97.765 C 317.900 97.511,317.582 96.940,317.856 96.497 C 318.186 95.963,317.390 95.871,315.502 96.226 C 313.271 96.644,312.546 96.489,312.172 95.513 C 311.801 94.547,310.926 94.351,308.283 94.641 C 306.408 94.847,304.873 94.772,304.873 94.473 C 304.873 93.662,290.051 93.729,289.548 94.542 M304.605 114.028 C 304.109 114.346,305.634 114.437,307.992 114.230 C 310.944 113.971,311.916 114.091,311.111 114.615 C 310.106 115.269,310.130 115.377,311.279 115.388 C 313.110 115.404,319.151 117.505,324.344 119.933 C 326.715 121.041,328.944 121.869,329.298 121.773 C 329.651 121.677,329.718 121.958,329.447 122.398 C 329.175 122.837,329.305 123.197,329.735 123.197 C 330.560 123.197,338.608 130.319,340.690 132.891 C 343.503 136.365,347.225 139.511,347.974 139.048 C 348.423 138.770,348.546 138.928,348.252 139.404 C 347.962 139.873,348.432 141.419,349.298 142.838 C 351.007 145.642,351.323 146.956,350.106 146.204 C 349.267 145.685,349.758 147.295,351.415 150.487 C 352.015 151.643,352.451 151.960,352.487 151.267 C 352.527 150.484,352.768 150.613,353.216 151.657 C 354.137 153.800,354.137 155.032,353.216 153.606 C 352.754 152.891,352.456 152.800,352.449 153.373 C 352.442 153.887,352.907 154.589,353.482 154.932 C 354.057 155.275,354.731 156.365,354.980 157.355 C 355.355 158.843,355.242 158.995,354.325 158.234 C 353.115 157.230,352.965 157.502,353.688 159.386 C 353.947 160.062,354.413 160.458,354.724 160.266 C 355.034 160.074,355.189 161.918,355.067 164.364 C 354.886 168.030,354.972 168.400,355.560 166.472 C 356.077 164.778,356.148 165.530,355.818 169.201 C 354.978 178.541,354.152 184.382,353.227 187.524 C 352.722 189.240,352.122 191.608,351.894 192.788 C 351.666 193.967,351.128 194.932,350.698 194.932 C 350.268 194.932,350.099 195.634,350.324 196.492 C 350.548 197.351,350.450 197.879,350.106 197.666 C 349.763 197.454,349.273 197.822,349.019 198.486 C 348.713 199.281,348.885 199.522,349.522 199.193 C 350.053 198.919,349.719 199.340,348.781 200.127 C 347.842 200.915,346.965 202.025,346.831 202.593 C 346.698 203.162,345.273 205.091,343.665 206.881 C 340.924 209.932,339.826 211.963,341.467 210.949 C 341.866 210.703,342.384 210.811,342.619 211.190 C 342.853 211.569,342.439 211.838,341.698 211.788 C 340.957 211.737,340.238 212.047,340.100 212.476 C 339.621 213.968,337.409 215.945,336.705 215.510 C 336.315 215.269,334.519 216.274,332.715 217.745 C 328.856 220.890,322.454 224.561,320.830 224.561 C 320.202 224.561,319.688 224.846,319.688 225.194 C 319.688 225.541,317.846 226.288,315.595 226.854 C 313.343 227.419,311.150 228.148,310.721 228.474 C 308.086 230.479,288.942 229.966,281.092 227.680 C 279.376 227.181,277.008 226.586,275.828 226.358 C 274.649 226.130,273.684 225.595,273.684 225.169 C 273.684 224.743,273.140 224.604,272.474 224.859 C 271.684 225.162,271.458 225.010,271.822 224.420 C 272.199 223.811,271.944 223.684,271.043 224.030 C 270.248 224.335,269.898 224.231,270.181 223.773 C 270.443 223.349,270.110 223.002,269.442 223.002 C 268.773 223.002,268.226 222.614,268.226 222.139 C 268.226 221.664,267.729 221.466,267.121 221.700 C 266.513 221.933,265.809 221.583,265.555 220.922 C 265.288 220.226,264.589 219.915,263.891 220.183 C 263.229 220.437,262.887 220.322,263.130 219.927 C 263.646 219.093,260.464 216.650,259.576 217.199 C 259.247 217.403,258.723 217.158,258.413 216.656 C 258.037 216.048,258.189 215.954,258.869 216.374 C 259.545 216.792,259.702 216.701,259.334 216.105 C 259.028 215.610,258.281 215.205,257.674 215.205 C 257.067 215.205,256.037 214.174,255.386 212.915 C 254.735 211.656,253.761 210.360,253.222 210.036 C 252.527 209.619,252.555 209.888,253.318 210.961 C 254.497 212.620,250.977 208.957,248.092 205.523 C 246.356 203.456,246.348 203.389,247.897 203.881 C 250.138 204.592,249.934 203.631,247.661 202.766 C 245.875 202.087,241.715 195.104,241.715 192.783 C 241.715 192.199,241.369 191.935,240.945 192.197 C 240.521 192.459,240.352 192.208,240.571 191.640 C 240.789 191.071,240.446 188.873,239.808 186.756 C 239.171 184.638,238.926 182.716,239.265 182.486 C 240.271 181.800,240.949 179.337,240.131 179.337 C 239.716 179.337,239.371 179.951,239.364 180.702 C 239.354 181.868,239.242 181.896,238.596 180.897 C 237.578 179.321,237.578 172.080,238.596 172.710 C 239.046 172.988,239.371 172.265,239.364 171.001 C 239.355 169.301,239.183 169.072,238.596 169.981 C 238.030 170.858,237.840 170.468,237.839 168.421 C 237.837 164.432,238.647 161.790,239.472 163.092 C 239.978 163.889,240.135 163.814,240.144 162.768 C 240.151 162.018,239.819 161.404,239.408 161.404 C 238.996 161.404,238.733 160.385,238.823 159.140 C 238.913 157.896,239.250 157.039,239.571 157.237 C 239.893 157.435,240.156 156.904,240.156 156.056 C 240.156 153.267,243.173 147.215,244.243 147.858 C 245.001 148.314,245.021 148.192,244.328 147.323 C 243.641 146.462,243.687 145.963,244.523 145.193 C 245.123 144.640,245.625 144.465,245.638 144.804 C 245.651 145.142,246.021 144.802,246.460 144.048 C 246.899 143.295,247.009 142.275,246.705 141.784 C 246.364 141.232,246.497 141.103,247.053 141.446 C 248.252 142.187,248.203 140.943,246.979 139.570 C 246.160 138.651,246.206 138.629,247.270 139.427 C 248.673 140.482,251.616 137.183,250.657 135.631 C 250.393 135.204,250.466 134.948,250.819 135.062 C 251.871 135.403,260.425 126.941,259.895 126.084 C 259.627 125.650,259.736 125.498,260.136 125.745 C 260.536 125.992,262.253 124.994,263.952 123.526 C 265.650 122.059,267.657 120.858,268.413 120.858 C 269.168 120.858,269.786 120.548,269.786 120.169 C 269.786 119.790,270.575 119.296,271.540 119.071 C 272.505 118.847,275.750 117.761,278.752 116.658 C 281.754 115.555,285.506 114.645,287.088 114.636 C 288.671 114.627,290.130 114.357,290.330 114.035 C 290.530 113.713,294.026 113.450,298.100 113.450 C 302.173 113.450,305.100 113.710,304.605 114.028 M321.816 141.982 C 321.056 142.424,320.672 143.169,320.962 143.638 C 321.282 144.156,321.127 144.267,320.569 143.922 C 319.994 143.567,314.707 148.320,306.444 156.623 L 293.239 169.892 290.957 168.753 C 289.701 168.127,288.493 166.923,288.272 166.078 C 288.051 165.233,286.956 164.194,285.840 163.769 C 284.723 163.345,283.900 162.551,284.010 162.005 C 284.120 161.460,283.659 161.102,282.984 161.211 C 282.310 161.320,280.906 160.474,279.865 159.331 C 278.824 158.188,278.499 157.546,279.142 157.903 C 279.952 158.353,279.879 158.058,278.908 156.949 C 275.907 153.521,268.003 154.193,265.253 158.109 C 263.484 160.627,263.298 168.971,265.018 168.597 C 265.560 168.479,265.771 168.757,265.488 169.215 C 264.795 170.336,272.994 178.690,274.297 178.190 C 274.862 177.973,275.109 178.145,274.845 178.572 C 274.581 179.000,274.888 179.873,275.528 180.513 C 276.906 181.891,277.910 182.057,277.119 180.776 C 276.763 180.201,276.906 180.088,277.516 180.465 C 278.040 180.789,278.284 181.537,278.057 182.128 C 277.597 183.326,285.884 190.516,286.958 189.852 C 287.318 189.630,287.865 189.859,288.176 190.361 C 288.528 190.931,288.402 191.065,287.840 190.718 C 287.345 190.412,286.940 190.363,286.940 190.609 C 286.940 191.465,292.019 194.146,293.645 194.149 C 295.720 194.153,301.974 189.680,301.336 188.648 C 301.074 188.223,301.186 187.972,301.585 188.090 C 302.320 188.307,313.450 178.290,313.450 177.412 C 313.450 176.679,319.849 170.760,320.641 170.760 C 321.025 170.760,321.155 170.462,320.930 170.098 C 320.705 169.734,321.399 168.966,322.471 168.392 C 323.592 167.793,324.247 166.896,324.013 166.285 C 323.781 165.682,323.953 165.437,324.410 165.719 C 325.421 166.344,327.622 164.594,327.029 163.635 C 326.787 163.244,326.886 163.021,327.247 163.139 C 328.371 163.504,334.578 157.265,334.164 156.186 C 333.948 155.625,334.088 155.166,334.473 155.166 C 334.883 155.166,334.872 154.115,334.448 152.637 C 333.412 149.022,333.480 146.600,334.574 148.148 C 335.309 149.188,335.366 149.188,335.082 148.148 C 334.907 147.505,334.342 146.979,333.827 146.979 C 333.313 146.979,332.455 146.102,331.921 145.031 C 331.387 143.960,330.434 143.048,329.802 143.006 C 325.582 142.719,325.500 142.690,326.706 141.910 C 328.364 140.839,323.662 140.907,321.816 141.982 M165.116 162.735 C 166.086 162.921,167.490 162.914,168.235 162.719 C 168.981 162.524,168.187 162.371,166.472 162.380 C 164.756 162.389,164.146 162.548,165.116 162.735 M78.521 163.455 C 78.196 163.779,74.396 163.953,70.076 163.841 C 64.046 163.685,62.358 163.859,62.810 164.590 C 63.194 165.212,63.074 165.342,62.464 164.966 C 61.951 164.648,60.965 164.857,60.275 165.430 C 59.584 166.003,58.883 166.348,58.716 166.196 C 58.106 165.641,53.834 167.843,54.241 168.503 C 54.473 168.877,54.120 168.975,53.458 168.721 C 52.750 168.449,52.058 168.772,51.777 169.505 C 51.514 170.191,51.006 170.570,50.648 170.349 C 50.290 170.128,48.365 171.533,46.369 173.472 C 44.374 175.412,43.168 176.998,43.689 176.998 C 44.421 176.998,44.415 177.263,43.665 178.168 C 43.131 178.811,42.211 179.337,41.620 179.337 C 41.029 179.337,40.546 179.677,40.546 180.092 C 40.546 180.508,41.160 180.650,41.910 180.409 C 42.749 180.139,42.940 180.224,42.405 180.628 C 41.927 180.990,41.295 182.058,41.001 183.001 C 40.681 184.028,40.036 184.551,39.393 184.304 C 38.643 184.016,38.439 184.345,38.714 185.397 C 38.930 186.225,38.532 187.478,37.828 188.182 C 37.124 188.886,36.791 189.855,37.087 190.335 C 37.384 190.815,37.143 191.514,36.552 191.888 C 35.811 192.357,35.773 192.572,36.428 192.581 C 36.973 192.588,37.176 193.119,36.904 193.828 C 36.571 194.696,36.264 194.793,35.869 194.155 C 35.537 193.618,35.105 194.261,34.811 195.729 C 34.538 197.094,34.517 198.537,34.763 198.936 C 35.955 200.864,36.481 204.176,35.539 203.814 C 34.841 203.546,34.680 204.162,34.966 206.009 C 35.344 208.450,35.389 208.481,35.864 206.628 C 36.330 204.813,36.402 204.873,36.911 207.498 C 37.212 209.048,37.215 210.951,36.917 211.727 C 36.494 212.830,36.664 213.026,37.699 212.629 C 38.833 212.193,38.897 212.355,38.147 213.757 C 37.665 214.657,37.616 215.180,38.038 214.919 C 38.805 214.445,40.806 218.347,40.806 220.315 C 40.806 220.887,41.010 221.334,41.261 221.307 C 42.733 221.148,43.119 221.567,42.105 222.222 C 41.106 222.868,41.134 222.980,42.300 222.990 C 43.051 222.997,43.577 223.441,43.470 223.977 C 43.363 224.513,43.740 224.855,44.307 224.737 C 44.875 224.619,45.120 224.878,44.852 225.312 C 43.780 227.047,53.184 234.318,58.480 235.849 C 58.694 235.911,60.228 236.555,61.889 237.279 C 65.374 238.800,65.757 238.868,65.132 237.858 C 64.876 237.443,65.453 237.268,66.448 237.460 C 67.423 237.648,68.339 238.156,68.483 238.589 C 68.826 239.616,77.733 239.615,78.368 238.588 C 78.636 238.154,79.797 237.864,80.948 237.942 C 84.734 238.199,95.507 233.605,94.591 232.123 C 94.324 231.691,94.480 231.569,94.936 231.851 C 95.393 232.133,97.000 231.167,98.507 229.703 C 100.014 228.240,101.449 227.245,101.695 227.491 C 101.942 227.738,102.188 227.531,102.242 227.031 C 102.295 226.530,102.383 225.788,102.437 225.380 C 102.490 224.973,103.044 224.183,103.666 223.626 C 104.656 222.740,104.656 222.808,103.666 224.172 C 102.610 225.626,102.629 225.656,103.950 224.618 C 104.729 224.006,105.890 222.427,106.531 221.109 L 107.696 218.713 106.080 220.663 C 104.866 222.126,104.596 222.240,104.996 221.120 C 105.394 220.004,105.267 219.788,104.495 220.265 C 103.803 220.693,103.649 220.603,104.027 219.991 C 104.337 219.489,104.860 219.244,105.189 219.447 C 105.978 219.935,108.537 214.527,107.959 213.592 C 107.712 213.192,107.906 212.865,108.389 212.865 C 108.937 212.865,109.068 212.206,108.737 211.111 C 108.304 209.680,108.395 209.536,109.230 210.331 C 110.689 211.721,111.151 211.549,111.301 209.561 C 111.386 208.430,111.217 208.165,110.820 208.807 C 110.483 209.352,110.236 206.189,110.270 201.780 C 110.337 193.067,108.421 185.666,105.206 182.215 C 104.335 181.280,103.776 179.925,103.964 179.205 C 104.213 178.255,103.956 178.026,103.031 178.372 C 101.883 178.802,101.872 178.702,102.924 177.384 C 103.567 176.578,103.726 176.139,103.277 176.407 C 102.242 177.025,101.371 176.414,99.123 173.489 C 98.134 172.203,97.093 171.150,96.810 171.150 C 96.528 171.150,96.377 170.908,96.475 170.613 C 96.574 170.318,95.980 170.206,95.156 170.365 C 94.244 170.540,93.793 170.293,94.003 169.732 C 94.404 168.666,89.881 165.859,88.820 166.514 C 88.429 166.756,88.109 166.561,88.109 166.082 C 88.109 165.602,87.788 165.408,87.396 165.651 C 87.004 165.893,86.565 165.785,86.421 165.410 C 86.278 165.035,85.283 164.484,84.211 164.185 C 82.725 163.770,82.539 163.835,83.431 164.459 C 84.149 164.962,84.242 165.283,83.672 165.290 C 83.161 165.297,82.511 164.927,82.228 164.469 C 81.945 164.011,81.245 163.816,80.673 164.036 C 80.101 164.255,79.515 164.082,79.371 163.650 C 79.228 163.219,78.845 163.131,78.521 163.455 M153.196 164.897 C 147.301 167.019,135.903 174.659,138.633 174.659 C 138.978 174.659,139.751 174.220,140.352 173.684 C 141.279 172.858,141.292 172.913,140.438 174.044 C 139.884 174.778,138.799 175.578,138.028 175.823 C 136.154 176.418,132.326 182.298,132.878 183.735 C 133.158 184.466,132.991 184.676,132.412 184.318 C 131.803 183.942,131.676 184.196,132.022 185.098 C 132.305 185.834,132.226 186.244,131.847 186.010 C 131.015 185.496,130.029 187.763,130.648 188.764 C 130.889 189.154,130.756 189.474,130.351 189.474 C 129.947 189.474,129.433 190.176,129.208 191.034 C 128.984 191.893,129.119 192.398,129.507 192.158 C 130.343 191.641,130.399 193.365,129.711 198.389 C 129.380 200.804,128.983 201.710,128.553 201.032 C 128.141 200.382,127.917 201.155,127.949 203.119 C 127.976 204.834,128.175 205.799,128.392 205.263 C 129.190 203.286,130.215 204.375,130.226 207.212 C 130.233 208.821,130.564 210.651,130.961 211.280 C 131.415 211.997,131.391 212.777,130.897 213.372 C 130.354 214.027,130.503 215.000,131.381 216.517 C 132.560 218.552,132.528 218.025,131.269 214.620 C 130.268 211.912,132.397 214.785,133.651 217.834 C 134.828 220.695,134.821 220.798,133.528 219.792 C 132.778 219.208,133.633 220.237,135.429 222.079 C 137.225 223.920,138.812 226.197,138.956 227.139 C 139.100 228.080,139.649 228.762,140.174 228.655 C 140.700 228.548,141.131 229.024,141.131 229.713 C 141.131 230.525,141.556 230.803,142.341 230.502 C 143.006 230.246,143.360 230.346,143.127 230.723 C 142.573 231.620,145.214 233.310,150.506 235.447 C 152.854 236.395,155.345 237.466,156.040 237.828 C 156.774 238.209,157.630 238.160,158.079 237.711 C 158.591 237.199,159.265 237.349,160.072 238.157 C 161.496 239.580,169.981 239.909,169.981 238.541 C 169.981 238.081,170.770 237.807,171.735 237.932 C 172.700 238.057,173.982 237.852,174.584 237.477 C 175.310 237.026,175.503 237.082,175.156 237.644 C 174.868 238.110,176.810 237.638,179.472 236.595 C 182.133 235.551,184.420 234.698,184.553 234.698 C 184.686 234.698,184.801 234.084,184.807 233.333 C 184.816 232.390,185.005 232.262,185.422 232.918 C 185.876 233.632,186.656 233.484,188.568 232.321 C 190.074 231.405,190.887 230.413,190.561 229.887 C 190.257 229.394,190.356 229.211,190.784 229.475 C 191.693 230.037,197.462 224.251,198.792 221.442 L 199.715 219.493 198.083 221.442 C 197.186 222.515,196.549 222.890,196.667 222.278 C 197.015 220.467,199.042 218.365,199.944 218.878 C 200.404 219.140,200.533 219.080,200.232 218.746 C 199.931 218.411,200.217 217.606,200.867 216.955 C 201.574 216.248,201.765 215.489,201.343 215.066 C 200.920 214.643,201.073 212.727,201.723 210.298 C 203.206 204.764,202.187 188.744,200.308 188.044 C 199.924 187.901,199.610 187.331,199.610 186.778 C 199.610 184.972,195.438 178.236,192.435 175.195 C 190.059 172.788,189.831 172.325,191.241 172.758 C 194.180 173.660,187.437 168.678,182.664 166.420 C 180.304 165.303,177.724 164.558,176.932 164.766 C 176.139 164.973,175.567 164.761,175.660 164.294 C 175.753 163.827,175.127 163.318,174.269 163.162 C 172.952 162.923,172.892 163.019,173.879 163.774 C 174.844 164.513,174.776 164.572,173.489 164.113 C 172.632 163.807,171.404 163.598,170.760 163.648 C 168.744 163.804,161.882 163.673,159.829 163.440 C 158.749 163.317,155.764 163.973,153.196 164.897 M374.834 174.060 C 374.661 175.462,374.515 174.503,374.511 171.930 C 374.506 169.357,374.648 168.210,374.826 169.382 C 375.004 170.553,375.008 172.659,374.834 174.060 M111.698 197.661 C 111.706 199.376,111.866 199.986,112.052 199.016 C 112.239 198.046,112.232 196.643,112.037 195.897 C 111.842 195.152,111.689 195.945,111.698 197.661 M127.875 197.615 C 127.875 200.004,128.320 200.197,128.881 198.051 C 129.105 197.194,128.970 196.296,128.582 196.056 C 128.193 195.816,127.875 196.517,127.875 197.615 M65.996 247.715 C 65.698 248.012,64.061 248.173,62.357 248.073 C 60.653 247.972,59.259 248.167,59.258 248.506 C 59.257 248.845,58.120 249.203,56.730 249.301 C 53.672 249.517,50.025 250.891,48.066 252.565 C 47.271 253.245,46.394 253.801,46.117 253.801 C 45.840 253.801,45.702 254.064,45.809 254.386 C 45.916 254.708,45.741 254.929,45.419 254.878 C 43.904 254.639,42.836 255.041,43.242 255.697 C 43.488 256.096,43.279 256.676,42.777 256.987 C 42.207 257.339,42.073 257.213,42.421 256.651 C 42.727 256.156,42.653 255.750,42.258 255.750 C 40.852 255.750,34.321 263.454,34.759 264.596 C 34.998 265.219,34.765 265.994,34.241 266.318 C 33.591 266.720,33.488 266.583,33.918 265.887 C 34.345 265.197,34.245 265.054,33.611 265.446 C 32.885 265.895,32.883 266.279,33.601 267.144 C 34.349 268.046,34.293 268.171,33.308 267.794 C 31.923 267.262,30.409 269.520,30.409 272.120 C 30.409 273.031,30.117 273.596,29.760 273.375 C 29.402 273.154,29.066 273.396,29.012 273.913 C 28.958 274.431,28.564 276.433,28.136 278.363 C 27.708 280.292,27.368 282.573,27.379 283.431 L 27.400 284.990 28.070 283.431 C 28.465 282.511,28.773 291.626,28.820 305.653 C 28.884 324.702,29.116 329.721,29.988 330.871 C 31.027 332.242,33.377 332.302,81.979 332.201 C 136.611 332.087,133.981 332.220,132.789 329.628 C 131.263 326.311,128.714 319.295,128.328 317.349 C 127.657 313.965,123.669 302.946,122.928 302.426 C 122.537 302.153,122.458 301.539,122.753 301.062 C 123.048 300.585,122.859 300.195,122.333 300.195 C 121.808 300.195,121.587 299.986,121.843 299.730 C 122.099 299.474,120.806 294.930,118.971 289.632 C 116.510 282.531,115.859 279.755,116.491 279.067 C 117.121 278.382,117.105 278.271,116.430 278.649 C 115.900 278.947,115.301 278.501,115.013 277.594 C 114.739 276.730,114.219 276.023,113.857 276.023 C 113.495 276.023,113.304 275.409,113.433 274.659 C 113.562 273.908,112.854 271.803,111.859 269.981 C 110.865 268.158,110.366 266.667,110.752 266.667 C 111.137 266.667,111.223 266.070,110.944 265.342 C 110.602 264.453,110.328 264.338,110.110 264.993 C 109.879 265.683,109.447 265.557,108.635 264.564 C 108.004 263.791,107.742 263.651,108.055 264.253 C 108.455 265.025,108.323 265.162,107.605 264.719 C 106.796 264.219,106.846 263.899,107.852 263.164 C 108.980 262.339,108.852 261.990,106.680 259.969 C 105.339 258.721,104.545 258.226,104.914 258.869 C 105.284 259.513,104.123 258.505,102.336 256.630 C 99.988 254.168,98.705 253.367,97.715 253.747 C 96.961 254.037,96.594 254.023,96.900 253.717 C 97.655 252.962,94.544 250.858,93.566 251.463 C 93.138 251.727,92.788 251.597,92.788 251.173 C 92.788 250.180,84.522 248.449,83.322 249.190 C 82.793 249.517,82.618 249.417,82.905 248.953 C 83.238 248.414,80.683 248.282,75.117 248.548 C 69.046 248.839,66.980 248.709,67.381 248.059 C 67.973 247.101,66.881 246.829,65.996 247.715 M152.935 248.639 C 150.517 249.230,148.420 250.022,148.276 250.398 C 148.133 250.774,147.679 250.874,147.268 250.620 C 146.857 250.366,146.009 250.582,145.385 251.100 C 144.760 251.619,144.250 251.816,144.250 251.539 C 144.250 251.263,143.375 251.609,142.307 252.309 C 141.238 253.009,140.535 253.858,140.743 254.195 C 140.951 254.532,140.579 255.016,139.916 255.270 C 139.226 255.535,138.914 255.403,139.187 254.962 C 139.890 253.824,138.845 254.026,137.603 255.268 C 137.011 255.860,136.744 256.562,137.009 256.827 C 137.275 257.093,137.033 257.310,136.472 257.310 C 135.453 257.310,131.074 261.445,130.905 262.566 C 130.856 262.892,130.702 264.127,130.561 265.312 C 130.421 266.497,129.759 268.013,129.091 268.681 C 128.422 269.350,127.881 270.310,127.887 270.816 C 127.894 271.355,128.212 271.251,128.655 270.565 C 129.216 269.697,129.414 270.161,129.423 272.366 C 129.431 274.329,129.144 275.156,128.577 274.806 C 127.954 274.420,127.954 274.713,128.577 275.878 C 129.772 278.111,129.650 278.955,128.382 277.222 C 127.432 275.922,127.365 276.019,127.690 278.234 C 127.888 279.583,128.329 280.513,128.670 280.303 C 129.010 280.092,129.107 280.616,128.884 281.468 C 128.250 283.894,129.355 287.526,130.300 286.119 C 130.845 285.308,130.962 285.689,130.713 287.471 C 130.457 289.308,130.636 289.848,131.404 289.553 C 132.132 289.274,132.313 289.639,132.014 290.782 C 131.781 291.677,131.949 293.371,132.388 294.547 C 132.828 295.724,133.400 297.340,133.659 298.138 C 134.050 299.341,134.336 299.421,135.317 298.607 C 136.356 297.745,136.400 297.891,135.677 299.792 C 134.814 302.064,135.317 305.185,136.436 304.494 C 136.794 304.272,136.913 304.754,136.701 305.564 C 136.490 306.374,136.752 307.306,137.285 307.635 C 137.949 308.046,138.055 307.913,137.622 307.212 C 137.197 306.525,137.295 306.380,137.923 306.768 C 138.435 307.085,138.650 307.990,138.399 308.780 C 138.114 309.678,138.438 310.492,139.264 310.955 C 140.138 311.444,140.435 312.266,140.142 313.386 C 139.898 314.317,140.195 316.028,140.800 317.188 C 141.417 318.371,141.927 318.784,141.960 318.129 C 141.993 317.485,142.687 318.889,143.503 321.248 C 145.279 326.386,145.244 326.151,144.129 325.462 C 143.553 325.106,143.441 325.249,143.818 325.859 C 144.142 326.383,144.837 326.647,145.362 326.446 C 145.953 326.219,146.266 326.718,146.185 327.757 C 145.930 330.987,147.822 332.683,151.461 332.490 C 159.477 332.063,223.858 332.119,224.561 332.553 C 225.912 333.388,225.406 329.659,223.346 323.588 C 222.255 320.372,221.516 317.153,221.704 316.434 C 221.913 315.633,221.677 315.268,221.094 315.492 C 220.571 315.692,220.143 315.348,220.143 314.727 C 220.143 312.464,217.256 304.496,216.016 303.336 C 215.315 302.681,215.196 302.450,215.753 302.825 C 217.068 303.709,217.031 302.973,215.626 300.255 C 214.999 299.044,214.707 297.834,214.976 297.565 C 215.245 297.296,215.066 297.076,214.579 297.076 C 214.061 297.076,213.906 296.510,214.206 295.712 C 214.669 294.474,214.581 294.456,213.252 295.517 C 211.949 296.556,211.866 296.556,212.499 295.517 C 212.891 294.873,213.275 293.996,213.353 293.567 C 213.431 293.138,213.737 292.086,214.033 291.228 C 214.409 290.141,214.349 289.980,213.834 290.698 C 213.301 291.441,212.616 290.358,211.366 286.799 C 210.415 284.089,209.147 280.819,208.548 279.532 C 207.950 278.246,207.361 276.681,207.239 276.055 C 207.117 275.430,206.228 273.360,205.263 271.456 C 203.284 267.550,203.058 266.304,204.483 267.160 C 205.093 267.526,205.029 267.178,204.314 266.232 C 202.541 263.884,202.445 263.831,202.998 265.497 C 203.396 266.697,203.063 266.549,201.552 264.856 C 200.472 263.645,199.823 262.275,200.109 261.811 C 200.444 261.270,200.261 261.196,199.598 261.606 C 198.861 262.061,198.700 261.894,199.034 261.022 C 199.339 260.227,198.662 259.161,197.094 257.970 C 195.769 256.964,194.217 255.679,193.645 255.116 C 193.073 254.553,192.288 254.287,191.901 254.527 C 191.513 254.766,190.981 254.401,190.718 253.716 C 190.437 252.983,189.745 252.660,189.037 252.932 C 188.375 253.186,188.026 253.081,188.263 252.699 C 188.499 252.316,187.552 251.591,186.159 251.087 C 179.478 248.669,175.595 248.106,168.031 248.462 C 162.525 248.721,160.578 248.592,161.404 248.022 C 163.012 246.913,158.710 247.226,152.935 248.639 M251.852 248.001 C 245.878 248.833,243.275 249.570,243.275 250.429 C 243.275 250.833,242.928 250.950,242.504 250.688 C 241.408 250.011,234.771 253.093,234.217 254.537 C 233.963 255.199,233.486 255.575,233.157 255.372 C 232.190 254.774,229.450 257.602,229.853 258.783 C 230.087 259.470,229.882 259.656,229.292 259.291 C 228.222 258.630,225.168 261.077,225.795 262.093 C 226.025 262.464,225.881 262.768,225.476 262.768 C 224.456 262.768,222.032 268.067,222.617 269.014 C 222.880 269.439,222.797 269.786,222.434 269.786 C 222.071 269.786,221.718 273.207,221.651 277.388 C 221.582 281.594,221.796 284.319,222.128 283.488 C 222.621 282.255,222.811 282.198,223.183 283.169 C 223.433 283.819,223.324 284.846,222.942 285.451 C 222.559 286.055,222.246 286.901,222.246 287.329 C 222.246 287.758,222.531 287.661,222.879 287.112 C 223.784 285.686,225.523 289.759,224.924 291.902 C 224.601 293.060,224.679 293.251,225.182 292.527 C 225.775 291.673,225.982 291.691,226.341 292.627 C 226.582 293.254,226.368 294.212,225.865 294.756 C 225.152 295.528,225.194 295.607,226.058 295.113 C 226.868 294.651,227.038 294.812,226.692 295.714 C 226.415 296.438,226.704 297.133,227.393 297.398 C 228.140 297.684,228.394 298.394,228.092 299.345 C 227.480 301.274,228.377 304.872,229.415 304.652 C 229.855 304.559,230.392 304.971,230.608 305.567 C 230.849 306.230,230.660 306.439,230.121 306.105 C 229.636 305.806,229.240 305.933,229.240 306.387 C 229.240 306.841,229.729 307.212,230.326 307.212 C 230.923 307.212,231.614 307.739,231.861 308.382 C 232.108 309.025,231.882 309.557,231.360 309.564 C 230.696 309.572,230.668 309.748,231.267 310.148 C 232.850 311.205,234.748 315.615,233.211 314.665 C 232.822 314.424,232.708 315.009,232.958 315.963 C 233.208 316.918,233.555 317.269,233.730 316.744 C 234.200 315.334,235.129 315.585,235.242 317.154 C 235.296 317.904,236.073 320.591,236.968 323.123 C 238.755 328.176,238.967 329.265,237.817 327.485 C 237.171 326.486,237.059 326.514,237.049 327.680 C 237.042 328.431,237.388 329.045,237.817 329.045 C 238.246 329.045,238.596 329.493,238.596 330.041 C 238.596 331.773,241.282 333.513,242.933 332.850 C 243.764 332.516,256.666 332.255,271.603 332.270 C 286.540 332.286,298.996 332.063,299.283 331.775 C 302.491 328.559,298.988 272.321,295.443 270.130 C 295.041 269.881,294.878 269.408,295.082 269.079 C 295.285 268.749,294.428 267.282,293.177 265.819 C 291.925 264.355,290.887 262.719,290.870 262.183 C 290.852 261.647,290.487 261.209,290.058 261.209 C 289.630 261.209,289.366 260.770,289.474 260.234 C 289.581 259.698,289.243 259.343,288.722 259.445 C 288.175 259.552,287.963 259.141,288.221 258.470 C 288.489 257.771,288.216 257.310,287.534 257.310 C 286.911 257.310,285.755 256.596,284.965 255.723 C 284.175 254.850,283.050 254.320,282.465 254.544 C 281.879 254.769,281.602 254.626,281.849 254.227 C 282.319 253.467,277.419 250.812,275.547 250.812 C 274.951 250.812,274.464 250.561,274.464 250.253 C 274.464 249.946,273.499 249.462,272.320 249.179 C 265.914 247.638,264.385 247.469,263.145 248.163 C 262.197 248.693,261.583 248.601,261.056 247.849 C 260.478 247.023,260.221 247.002,259.915 247.758 C 259.697 248.294,259.001 248.733,258.369 248.733 C 257.736 248.733,257.435 248.382,257.700 247.953 C 258.220 247.112,258.228 247.112,251.852 248.001 M196.633 258.480 C 197.908 259.552,198.711 260.429,198.418 260.429 C 198.125 260.429,196.843 259.552,195.569 258.480 C 194.295 257.407,193.492 256.530,193.785 256.530 C 194.077 256.530,195.359 257.407,196.633 258.480 M107.602 262.179 C 107.602 262.614,107.085 262.530,106.433 261.988 C 105.789 261.454,105.263 260.667,105.263 260.238 C 105.263 259.803,105.780 259.887,106.433 260.429 C 107.076 260.963,107.602 261.750,107.602 262.179 M210.657 282.301 C 211.113 283.609,211.631 284.535,211.808 284.358 C 212.194 283.972,210.723 279.922,210.196 279.922 C 209.994 279.922,210.201 280.993,210.657 282.301 M26.692 287.719 C 26.692 289.220,26.852 289.834,27.048 289.084 C 27.244 288.333,27.244 287.105,27.048 286.355 C 26.852 285.604,26.692 286.218,26.692 287.719 M126.940 310.487 C 127.454 311.002,127.875 312.034,127.875 312.780 C 127.875 313.527,128.204 314.341,128.605 314.589 C 129.058 314.869,129.058 314.075,128.605 312.496 C 128.204 311.097,127.875 309.862,127.875 309.752 C 127.875 309.642,127.454 309.552,126.940 309.552 C 126.212 309.552,126.212 309.760,126.940 310.487 " stroke="none" fill="#000000" fill-rule="evenodd"></path></g></svg>